<svg width="512" height="512" viewBox="0 0 512 512" fill="none" xmlns="http://www.w3.org/2000/svg">
  <defs>
    <!-- Accurate gradient from the provided image -->
    <linearGradient id="wag_grad" x1="0%" y1="0%" x2="100%" y2="100%">
      <stop offset="0%" stop-color="#3AC8FF" />
      <stop offset="50%" stop-color="#8E54E9" />
      <stop offset="100%" stop-color="#FF2EA6" />
    </linearGradient>
    <filter id="shadow_filter" x="-20%" y="-10%" width="140%" height="130%">
      <feGaussianBlur in="SourceAlpha" stdDeviation="10" />
      <feOffset dx="0" dy="6" />
      <feComponentTransfer>
        <feFuncA type="linear" slope="0.15" />
      </feComponentTransfer>
      <feMerge>
        <feMergeNode />
        <feMergeNode in="SourceGraphic" />
      </feMerge>
    </filter>
  </defs>
  
  <!-- Background Container -->
  <rect width="512" height="512" rx="110" fill="white" />
  
  <g filter="url(#shadow_filter)">
    <!-- Main Speech Bubble Shape -->
    <path d="M256 75 C145 75 55 145 55 230 C55 270 72 305 102 334 L94 385 L154 362 C185 377 220 385 256 385 C367 385 457 315 457 230 C457 145 367 75 256 75Z" fill="url(#wag_grad)" />
    
    <!-- Large White 'W' -->
    <path d="M145 205 
             L175 315 
             L225 225 
             L275 315 
             L305 205 
             C310 185, 340 185, 335 215
             L295 335
             C290 355, 260 355, 255 335
             L225 265
             L195 335
             C190 355, 160 355, 155 335
             L115 215
             C110 185, 140 185, 145 205 Z" fill="white" />
    
    <!-- Wagging Detail -->
    <path d="M312 230 C332 170, 375 195, 355 255 C345 290, 312 280, 312 230Z" fill="white" />
    <!-- Motion Lines -->
    <path d="M365 205 Q385 225, 365 245" stroke="white" stroke-width="7" stroke-linecap="round" fill="none" />
    <path d="M380 195 Q405 225, 380 255" stroke="white" stroke-width="5" stroke-linecap="round" fill="none" opacity="0.5" />
  </g>

  <!-- Branding text from image -->
  <text x="256" y="455" font-family="'Quicksand', sans-serif" font-weight="900" font-size="82" text-anchor="middle" fill="url(#wag_grad)">Wagachat!</text>
</svg>